<mxfile host="app.diagrams.net" agent="Mozilla/5.0 (Windows NT 10.0; Win64; x64) AppleWebKit/537.36 (KHTML, like Gecko) Chrome/131.0.0.0 Safari/537.36" version="24.8.3">
  <diagram name="Sayfa -1" id="4E-vmSD0kgJn3Kl4l5vn">
    <mxGraphModel dx="1877" dy="2895" grid="1" gridSize="10" guides="1" tooltips="1" connect="1" arrows="1" fold="1" page="1" pageScale="1" pageWidth="827" pageHeight="1169" math="0" shadow="0">
      <root>
        <mxCell id="0" />
        <mxCell id="1" parent="0" />
        <mxCell id="vPBRdKLDyhmEava-Joer-5" style="edgeStyle=orthogonalEdgeStyle;rounded=0;orthogonalLoop=1;jettySize=auto;html=1;exitX=0.5;exitY=1;exitDx=0;exitDy=0;" parent="1" source="vPBRdKLDyhmEava-Joer-2" edge="1">
          <mxGeometry relative="1" as="geometry">
            <mxPoint x="424" y="-1420" as="targetPoint" />
          </mxGeometry>
        </mxCell>
        <mxCell id="vPBRdKLDyhmEava-Joer-2" value="Başlangıç" style="ellipse;whiteSpace=wrap;html=1;fillColor=#f5f5f5;strokeColor=none;gradientColor=#b3b3b3;" parent="1" vertex="1">
          <mxGeometry x="365" y="-1600" width="120" height="80" as="geometry" />
        </mxCell>
        <mxCell id="IbGDrOYObItZFt8afFmf-4" style="edgeStyle=orthogonalEdgeStyle;rounded=0;orthogonalLoop=1;jettySize=auto;html=1;" edge="1" parent="1" source="IbGDrOYObItZFt8afFmf-1">
          <mxGeometry relative="1" as="geometry">
            <mxPoint x="610" y="-1355" as="targetPoint" />
          </mxGeometry>
        </mxCell>
        <mxCell id="IbGDrOYObItZFt8afFmf-6" style="edgeStyle=orthogonalEdgeStyle;rounded=0;orthogonalLoop=1;jettySize=auto;html=1;" edge="1" parent="1" source="IbGDrOYObItZFt8afFmf-1">
          <mxGeometry relative="1" as="geometry">
            <mxPoint x="250" y="-1355" as="targetPoint" />
          </mxGeometry>
        </mxCell>
        <mxCell id="IbGDrOYObItZFt8afFmf-55" style="edgeStyle=orthogonalEdgeStyle;rounded=0;orthogonalLoop=1;jettySize=auto;html=1;entryX=0.5;entryY=0;entryDx=0;entryDy=0;" edge="1" parent="1" source="IbGDrOYObItZFt8afFmf-1" target="IbGDrOYObItZFt8afFmf-43">
          <mxGeometry relative="1" as="geometry" />
        </mxCell>
        <mxCell id="IbGDrOYObItZFt8afFmf-1" value="Eşyamı Alınacak&lt;div&gt;Satışmı Yapılacak&lt;/div&gt;&lt;div&gt;İşlem yapılmayacakmı&lt;/div&gt;" style="rhombus;whiteSpace=wrap;html=1;fillColor=#f8cecc;strokeColor=#b85450;" vertex="1" parent="1">
          <mxGeometry x="330" y="-1420" width="190" height="130" as="geometry" />
        </mxCell>
        <mxCell id="IbGDrOYObItZFt8afFmf-20" style="edgeStyle=orthogonalEdgeStyle;rounded=0;orthogonalLoop=1;jettySize=auto;html=1;" edge="1" parent="1" source="IbGDrOYObItZFt8afFmf-7" target="IbGDrOYObItZFt8afFmf-9">
          <mxGeometry relative="1" as="geometry" />
        </mxCell>
        <mxCell id="IbGDrOYObItZFt8afFmf-7" value="Depoya girecek&lt;div&gt;ürünün adı&lt;/div&gt;" style="shape=parallelogram;perimeter=parallelogramPerimeter;whiteSpace=wrap;html=1;fixedSize=1;fillColor=#d5e8d4;strokeColor=#82b366;" vertex="1" parent="1">
          <mxGeometry x="130" y="-1210" width="140" height="60" as="geometry" />
        </mxCell>
        <mxCell id="IbGDrOYObItZFt8afFmf-21" style="edgeStyle=orthogonalEdgeStyle;rounded=0;orthogonalLoop=1;jettySize=auto;html=1;entryX=0.5;entryY=0;entryDx=0;entryDy=0;" edge="1" parent="1" source="IbGDrOYObItZFt8afFmf-9" target="IbGDrOYObItZFt8afFmf-10">
          <mxGeometry relative="1" as="geometry" />
        </mxCell>
        <mxCell id="IbGDrOYObItZFt8afFmf-9" value="Ne kadar alınacak" style="shape=parallelogram;perimeter=parallelogramPerimeter;whiteSpace=wrap;html=1;fixedSize=1;fillColor=#d5e8d4;strokeColor=#82b366;" vertex="1" parent="1">
          <mxGeometry x="130" y="-1090" width="140" height="60" as="geometry" />
        </mxCell>
        <mxCell id="IbGDrOYObItZFt8afFmf-44" style="edgeStyle=orthogonalEdgeStyle;rounded=0;orthogonalLoop=1;jettySize=auto;html=1;entryX=0;entryY=0.5;entryDx=0;entryDy=0;" edge="1" parent="1" source="IbGDrOYObItZFt8afFmf-10" target="IbGDrOYObItZFt8afFmf-43">
          <mxGeometry relative="1" as="geometry">
            <mxPoint x="200" y="-840" as="targetPoint" />
          </mxGeometry>
        </mxCell>
        <mxCell id="IbGDrOYObItZFt8afFmf-10" value="Ürünün tanesi&lt;div&gt;ne kadar&lt;br&gt;&lt;div&gt;&lt;br&gt;&lt;/div&gt;&lt;/div&gt;" style="shape=parallelogram;perimeter=parallelogramPerimeter;whiteSpace=wrap;html=1;fixedSize=1;fillColor=#d5e8d4;strokeColor=#82b366;" vertex="1" parent="1">
          <mxGeometry x="130" y="-980" width="140" height="60" as="geometry" />
        </mxCell>
        <mxCell id="IbGDrOYObItZFt8afFmf-29" style="edgeStyle=orthogonalEdgeStyle;rounded=0;orthogonalLoop=1;jettySize=auto;html=1;" edge="1" parent="1" source="IbGDrOYObItZFt8afFmf-22">
          <mxGeometry relative="1" as="geometry">
            <mxPoint x="40" y="-1355" as="targetPoint" />
          </mxGeometry>
        </mxCell>
        <mxCell id="IbGDrOYObItZFt8afFmf-33" style="edgeStyle=orthogonalEdgeStyle;rounded=0;orthogonalLoop=1;jettySize=auto;html=1;" edge="1" parent="1" source="IbGDrOYObItZFt8afFmf-22">
          <mxGeometry relative="1" as="geometry">
            <mxPoint x="200" y="-1210" as="targetPoint" />
          </mxGeometry>
        </mxCell>
        <mxCell id="IbGDrOYObItZFt8afFmf-22" value="Ürün Mevcutmu" style="rhombus;whiteSpace=wrap;html=1;fillColor=#f8cecc;strokeColor=none;" vertex="1" parent="1">
          <mxGeometry x="140" y="-1410" width="120" height="110" as="geometry" />
        </mxCell>
        <mxCell id="IbGDrOYObItZFt8afFmf-27" value="Eşya alınacak" style="text;html=1;align=center;verticalAlign=middle;whiteSpace=wrap;rounded=0;" vertex="1" parent="1">
          <mxGeometry x="260" y="-1390" width="60" height="30" as="geometry" />
        </mxCell>
        <mxCell id="IbGDrOYObItZFt8afFmf-28" value="Satış yapılacak" style="text;html=1;align=center;verticalAlign=middle;whiteSpace=wrap;rounded=0;" vertex="1" parent="1">
          <mxGeometry x="530" y="-1390" width="60" height="30" as="geometry" />
        </mxCell>
        <mxCell id="IbGDrOYObItZFt8afFmf-31" value="Evet" style="text;html=1;align=center;verticalAlign=middle;whiteSpace=wrap;rounded=0;" vertex="1" parent="1">
          <mxGeometry x="60" y="-1385" width="60" height="30" as="geometry" />
        </mxCell>
        <mxCell id="IbGDrOYObItZFt8afFmf-34" value="Hayır" style="text;html=1;align=center;verticalAlign=middle;whiteSpace=wrap;rounded=0;rotation=90;" vertex="1" parent="1">
          <mxGeometry x="190" y="-1270" width="60" height="30" as="geometry" />
        </mxCell>
        <mxCell id="IbGDrOYObItZFt8afFmf-45" style="edgeStyle=orthogonalEdgeStyle;rounded=0;orthogonalLoop=1;jettySize=auto;html=1;entryX=0;entryY=0.5;entryDx=0;entryDy=0;" edge="1" parent="1" source="IbGDrOYObItZFt8afFmf-35" target="IbGDrOYObItZFt8afFmf-43">
          <mxGeometry relative="1" as="geometry">
            <Array as="points">
              <mxPoint y="-830" />
            </Array>
          </mxGeometry>
        </mxCell>
        <mxCell id="IbGDrOYObItZFt8afFmf-35" value="Ürünü&amp;nbsp;&lt;div&gt;güncelle&lt;/div&gt;" style="shape=parallelogram;perimeter=parallelogramPerimeter;whiteSpace=wrap;html=1;fixedSize=1;fillColor=#d5e8d4;strokeColor=#82b366;" vertex="1" parent="1">
          <mxGeometry x="-50" y="-1385" width="100" height="55" as="geometry" />
        </mxCell>
        <mxCell id="IbGDrOYObItZFt8afFmf-43" value="Bitir" style="ellipse;whiteSpace=wrap;html=1;fillColor=#f5f5f5;gradientColor=#b3b3b3;strokeColor=none;" vertex="1" parent="1">
          <mxGeometry x="365" y="-870" width="120" height="80" as="geometry" />
        </mxCell>
        <mxCell id="IbGDrOYObItZFt8afFmf-46" value="Müşterinin ne&lt;div&gt;kadar parası&lt;/div&gt;&lt;div&gt;var&lt;/div&gt;" style="shape=parallelogram;perimeter=parallelogramPerimeter;whiteSpace=wrap;html=1;fixedSize=1;fillColor=#d5e8d4;strokeColor=#82b366;" vertex="1" parent="1">
          <mxGeometry x="600" y="-1385" width="140" height="60" as="geometry" />
        </mxCell>
        <mxCell id="IbGDrOYObItZFt8afFmf-51" style="edgeStyle=orthogonalEdgeStyle;rounded=0;orthogonalLoop=1;jettySize=auto;html=1;" edge="1" parent="1" source="IbGDrOYObItZFt8afFmf-48">
          <mxGeometry relative="1" as="geometry">
            <mxPoint x="660" y="-1110" as="targetPoint" />
          </mxGeometry>
        </mxCell>
        <mxCell id="IbGDrOYObItZFt8afFmf-48" value="Müşterinin&lt;div&gt;&amp;nbsp;aldığı ürün ve fiyatı&lt;/div&gt;&lt;div&gt;yaz&lt;/div&gt;&lt;div&gt;&lt;br&gt;&lt;/div&gt;" style="shape=parallelogram;perimeter=parallelogramPerimeter;whiteSpace=wrap;html=1;fixedSize=1;fillColor=#d5e8d4;strokeColor=#82b366;" vertex="1" parent="1">
          <mxGeometry x="590" y="-1240" width="140" height="60" as="geometry" />
        </mxCell>
        <mxCell id="IbGDrOYObItZFt8afFmf-49" style="edgeStyle=orthogonalEdgeStyle;rounded=0;orthogonalLoop=1;jettySize=auto;html=1;entryX=0.573;entryY=0.01;entryDx=0;entryDy=0;entryPerimeter=0;" edge="1" parent="1" source="IbGDrOYObItZFt8afFmf-46" target="IbGDrOYObItZFt8afFmf-48">
          <mxGeometry relative="1" as="geometry" />
        </mxCell>
        <mxCell id="IbGDrOYObItZFt8afFmf-53" style="edgeStyle=orthogonalEdgeStyle;rounded=0;orthogonalLoop=1;jettySize=auto;html=1;entryX=0.5;entryY=0;entryDx=0;entryDy=0;" edge="1" parent="1" source="IbGDrOYObItZFt8afFmf-50" target="IbGDrOYObItZFt8afFmf-52">
          <mxGeometry relative="1" as="geometry" />
        </mxCell>
        <mxCell id="IbGDrOYObItZFt8afFmf-50" value="Yeni stok bilgisi ve müşterinin kalan parası" style="rounded=0;whiteSpace=wrap;html=1;fillColor=#dae8fc;strokeColor=#6c8ebf;" vertex="1" parent="1">
          <mxGeometry x="600" y="-1110" width="120" height="60" as="geometry" />
        </mxCell>
        <mxCell id="IbGDrOYObItZFt8afFmf-54" style="edgeStyle=orthogonalEdgeStyle;rounded=0;orthogonalLoop=1;jettySize=auto;html=1;entryX=1;entryY=0.5;entryDx=0;entryDy=0;" edge="1" parent="1" source="IbGDrOYObItZFt8afFmf-52" target="IbGDrOYObItZFt8afFmf-43">
          <mxGeometry relative="1" as="geometry" />
        </mxCell>
        <mxCell id="IbGDrOYObItZFt8afFmf-52" value="Satış başarılı/Yetersiz para" style="rounded=0;whiteSpace=wrap;html=1;fillColor=#dae8fc;strokeColor=#6c8ebf;" vertex="1" parent="1">
          <mxGeometry x="600" y="-990" width="120" height="60" as="geometry" />
        </mxCell>
        <mxCell id="IbGDrOYObItZFt8afFmf-56" value="İşlem yapma" style="text;html=1;align=center;verticalAlign=middle;whiteSpace=wrap;rounded=0;rotation=-90;" vertex="1" parent="1">
          <mxGeometry x="360" y="-1110" width="100" height="30" as="geometry" />
        </mxCell>
      </root>
    </mxGraphModel>
  </diagram>
</mxfile>
